<?xml version="1.0" encoding="UTF-8"?>
<svg id="Calque_2" data-name="Calque 2" xmlns="http://www.w3.org/2000/svg" viewBox="0 0 192.38 155.13">
  <defs>
    <style>
      .cls-1 {
        fill: #fff;
      }
      .cls-3 {
        fill: purple;
      }
    </style>
  </defs>
  <g id="Calque_1-2" data-name="Calque 1">
    <rect class="cls-2" x=".8" y=".13" width="192" height="155" fill="none" />
    <g>
      <path class="cls-3" d="m94.95,3c.44,0,.89,0,1.33.03h.29c.44-.02.88-.03,1.32-.03,15.38,0,31.38,11.17,36.06,34.06,9.07-4.2,17.71-5.98,25.29-5.98,30.06,0,43.23,27.96-1.07,42.79,42.69,19.37,36.8,50.97,10.76,50.97-9.11,0-20.69-3.87-33.52-13.5,0,20.88-19.87,37.92-39.19,40.76h-.1c-19.31-2.83-39.19-19.87-39.19-40.76-12.83,9.63-24.41,13.5-33.52,13.5-26.03,0-31.92-31.61,10.76-50.97-44.3-14.84-31.14-42.79-1.07-42.79,7.57,0,16.22,1.77,25.29,5.98h-.01C63.06,14.16,79.54,3,94.95,3m2.95-3h0c-.46,0-.92,0-1.39.03h-.17c-.46-.02-.92-.03-1.39-.03-15.18,0-32.58,10.2-38.67,32.87-7.77-3.14-15.72-4.79-23.18-4.79-16.09,0-28.56,7.59-30.33,18.45-1.72,10.57,7.11,20.68,23.89,27.73-8.87,4.81-15.87,10.51-20.46,16.68-5.15,6.93-7.2,14.41-5.76,21.04,2.08,9.64,11.1,15.87,22.97,15.87,6.82,0,17.49-2,30.95-11,1.34,8.6,5.77,16.89,12.83,23.79,7.83,7.66,18.22,12.93,28.5,14.43.14.02.29.03.44.03h.1c.15,0,.29-.01.44-.03,10.28-1.51,20.67-6.77,28.5-14.43,7.05-6.9,11.49-15.19,12.82-23.79,13.46,9,24.13,11,30.95,11,11.87,0,20.89-6.23,22.97-15.87,1.43-6.63-.61-14.11-5.76-21.04-4.59-6.18-11.59-11.87-20.46-16.68,16.78-7.05,25.61-17.16,23.89-27.73-1.77-10.86-14.24-18.45-30.33-18.45-7.46,0-15.41,1.65-23.19,4.8-2.61-9.75-7.46-17.89-14.14-23.7C115.09,3.26,106.57,0,97.9,0h0Z"/>
      <path class="cls-3" d="m96.28,110.73c-.08,0-.17,0-.26-.02-27.09-4.68-40.73-20.74-44.18-33.07-2.38-8.5-.48-16.46,5.06-21.29,4.69-4.09,16.03-9.4,39.37.59,23.35-10,34.68-4.68,39.37-.59,5.55,4.83,7.44,12.79,5.06,21.29-3.45,12.33-17.09,28.39-44.18,33.07-.08.01-.17.02-.26.02Zm-23.69-56.46c-5.7,0-10.38,1.44-13.71,4.34-4.72,4.11-6.23,10.75-4.14,18.22,3.2,11.45,16,26.38,41.55,30.88,25.55-4.5,38.35-19.43,41.55-30.88,2.09-7.47.58-14.11-4.14-18.22-7.14-6.22-20.56-5.73-36.8,1.34-.38.17-.82.17-1.2,0-8.68-3.78-16.55-5.68-23.09-5.68Z"/>
      <g>
        <path class="cls-3" d="m102.08,62.71c0,.82,5.07,1.49,11.33,1.49,6.26,0,13.12-.67,13.12-1.49,0-.82-6.87-1.49-13.12-1.49s-11.33.67-11.33,1.49Z"/>
        <path class="cls-3" d="m113.4,65.2c-12.33,0-12.33-1.87-12.33-2.49s0-2.49,12.33-2.49c3.12,0,6.41.16,9.01.44,3.91.42,5.11.9,5.11,2.05s-1.19,1.62-5.11,2.05c-2.6.28-5.89.44-9.01.44Zm-8.3-2.49c1.78.26,4.57.49,8.3.49s7.06-.22,9.33-.49c-2.27-.27-5.59-.49-9.33-.49s-6.52.23-8.3.49Z"/>
      </g>
      <path class="cls-3" d="m127.35,75.76c-.52,0-.95-.38-.99-.9,0-.01,0-.04,0-.06-.02-.54.4-1.02.94-1.05.51-.02,1.01.37,1.05.91.04.55-.37,1.05-.92,1.09-.03,0-.05,0-.08,0Z"/>
      <g>
        <path class="cls-1" d="m99.57,74.75c0,.17-.01.34-.01.5,0,6.93,6.23,12.54,13.91,12.54s13.91-5.62,13.91-12.54c0-.16,0-.32-.01-.48l-27.79-.03Z"/>
        <path class="cls-3" d="m113.46,88.8c-8.22,0-14.91-6.08-14.91-13.54,0-.18,0-.37.01-.55.02-.54.46-.96,1-.96h0l27.79.03c.54,0,.98.43,1,.96,0,.17.01.35.01.52,0,7.47-6.69,13.54-14.91,13.54Zm-12.9-13.05c.29,6.14,5.96,11.05,12.9,11.05s12.59-4.9,12.9-11.02l-25.79-.02Z"/>
      </g>
      <path class="cls-3" d="m99.57,75.75c-.55,0-1-.45-1-1s.45-1.01,1-1.01,1,.44,1,.99h0c0,.56-.45,1.01-1,1.01Z"/>
      <path class="cls-3" d="m127.36,75.74h-27.79c-.27,0-.53-.11-.72-.31s-.29-.46-.28-.74c.33-7.28,6.87-12.98,14.89-12.98s14.57,5.7,14.89,12.98c.01.27-.09.54-.28.74s-.45.31-.72.31Zm-26.69-2h25.59c-.83-5.7-6.24-10.03-12.8-10.03s-11.97,4.33-12.8,10.03Z"/>
      <g>
        <path class="cls-3" d="m103.82,79c0,2.7,4.41,4.89,9.87,4.89,5.45,0,9.87-2.19,9.87-4.89,0-1.91-2.28-3.24-5.49-4.05-.65-.16-1.34.05-2.07-.04h-4.73c-.73.09-1.42-.25-2.07-.09-3.21.81-5.38,2.27-5.38,4.18Z"/>
        <path class="cls-3" d="m113.68,84.89c-6.09,0-10.87-2.59-10.87-5.89,0-2.32,2.18-4.15,6.14-5.15.54-.14,1.04-.06,1.47,0,.27.04.52.08.72.06.04,0,.08,0,.12,0h4.73s.08,0,.12,0c.23.03.49.01.77,0,.43-.03.91-.06,1.42.07,5.16,1.3,6.25,3.45,6.25,5.02,0,3.3-4.78,5.89-10.88,5.89Zm-4.09-9.11c-.05,0-.1,0-.14.01-2.86.72-4.63,1.95-4.63,3.21,0,1.84,3.64,3.89,8.87,3.89s8.88-2.05,8.88-3.89c0-1.2-1.73-2.32-4.74-3.08-.2-.05-.48-.03-.8-.01-.32.02-.69.05-1.08,0h-4.62c-.45.04-.87-.02-1.21-.07-.2-.03-.38-.06-.53-.06Z"/>
      </g>
      <ellipse class="cls-1" cx="113.54" cy="76.62" rx="5.45" ry="1.46"/>
      <path class="cls-3" d="m100.4,85.7c-.19,0-.38-.05-.54-.16-.46-.3-.59-.92-.29-1.38l1.55-2.38c.3-.46.92-.59,1.38-.29.46.3.59.92.29,1.38l-1.55,2.38c-.19.29-.51.45-.84.45Z"/>
      <path class="cls-3" d="m103.24,88.13c-.17,0-.35-.04-.51-.14-.48-.28-.63-.9-.35-1.37l1.16-1.95c.28-.48.89-.63,1.37-.35.48.28.63.9.35,1.37l-1.16,1.95c-.19.32-.52.49-.86.49Z"/>
      <path class="cls-3" d="m107.95,90.08c-.08,0-.16,0-.24-.03-.54-.13-.86-.68-.73-1.21l.51-2.04c.13-.54.68-.86,1.21-.73.54.13.86.68.73,1.21l-.51,2.04c-.11.45-.52.76-.97.76Z"/>
      <path class="cls-3" d="m129.76,82.91c-.26,0-.51-.1-.71-.29l-2.95-2.96c-.39-.39-.39-1.02,0-1.41.39-.39,1.02-.39,1.41,0l2.95,2.96c.39.39.39,1.02,0,1.41-.19.19-.45.29-.71.29Z"/>
      <path class="cls-3" d="m126.7,86.09c-.28,0-.56-.12-.76-.35l-1.88-2.21c-.36-.42-.31-1.05.11-1.41.42-.36,1.05-.31,1.41.11l1.88,2.21c.36.42.31,1.05-.11,1.41-.19.16-.42.24-.65.24Z"/>
      <path class="cls-3" d="m122.7,89.05c-.32,0-.63-.15-.83-.43l-1.36-1.98c-.31-.46-.2-1.08.26-1.39.46-.31,1.08-.2,1.39.26l1.36,1.98c.31.46.2,1.08-.26,1.39-.17.12-.37.18-.57.18Z"/>
      <path class="cls-3" d="m117.81,90.52c-.37,0-.72-.2-.89-.55l-.95-1.88c-.25-.49-.05-1.09.44-1.34.49-.25,1.09-.05,1.34.44l.95,1.88c.25.49.05,1.09-.44,1.34-.14.07-.3.11-.45.11Z"/>
      <path class="cls-3" d="m112.55,90.71c-.55,0-1-.45-1-1v-1.62c0-.55.45-1,1-1s1,.45,1,1v1.62c0,.55-.45,1-1,1Z"/>
      <path class="cls-3" d="m97.85,81.92c-.21,0-.42-.07-.6-.2-.44-.33-.52-.96-.19-1.4l2.08-2.74c.33-.44.96-.52,1.4-.19.44.33.52.96.19,1.4l-2.08,2.74c-.2.26-.5.39-.8.39Z"/>
      <g>
        <path class="cls-3" d="m90.42,62.71c0,.82-5.07,1.49-11.33,1.49s-13.12-.67-13.12-1.49,6.87-1.49,13.12-1.49,11.33.67,11.33,1.49Z"/>
        <path class="cls-3" d="m79.09,65.2c-3.12,0-6.41-.16-9.01-.44-3.91-.42-5.11-.9-5.11-2.05s1.19-1.62,5.11-2.05c2.6-.28,5.89-.44,9.01-.44,12.33,0,12.33,1.87,12.33,2.49s0,2.49-12.33,2.49Zm10.56-1.95h0,0Zm-19.89-.54c2.27.27,5.59.49,9.33.49s6.52-.23,8.3-.49c-1.78-.26-4.57-.49-8.3-.49s-7.06.22-9.33.49Z"/>
      </g>
      <path class="cls-3" d="m65.14,75.76c-.55,0-1-.43-1-.98,0-.01,0-.04,0-.06.02-.54.47-.97,1.02-.97.54.01.98.45.98.99s-.45,1.02-1,1.02Z"/>
      <g>
        <path class="cls-1" d="m92.93,74.75c0,.17.01.34.01.5,0,6.93-6.23,12.54-13.91,12.54s-13.91-5.62-13.91-12.54c0-.16,0-.32.01-.48l27.79-.03Z"/>
        <path class="cls-3" d="m79.03,88.8c-8.22,0-14.91-6.08-14.91-13.54,0-.17,0-.35.01-.52.02-.53.46-.96,1-.96l27.79-.03h0c.54,0,.98.43,1,.96l-1,.04,1,.02c0,.16.01.33.01.49,0,7.47-6.69,13.54-14.91,13.54Zm-12.9-13.02c.31,6.12,5.97,11.02,12.9,11.02s12.6-4.91,12.9-11.05l-25.79.02Z"/>
      </g>
      <path class="cls-3" d="m92.93,75.75c-.45,0-.86-.3-.97-.76-.02-.08-.03-.17-.03-.25,0-.55.45-1,1-1,.52,0,.95.4,1,.91.05.49-.27.95-.75,1.07-.08.02-.16.03-.24.03Z"/>
      <path class="cls-3" d="m92.93,75.74h-27.79c-.27,0-.53-.11-.72-.31s-.29-.46-.28-.74c.33-7.28,6.87-12.98,14.89-12.98s14.57,5.7,14.89,12.98c.01.27-.09.54-.28.74s-.45.31-.72.31Zm-26.69-2h25.59c-.83-5.7-6.24-10.03-12.8-10.03s-11.97,4.33-12.8,10.03Z"/>
      <g>
        <path class="cls-3" d="m88.68,79c0,2.7-4.41,4.89-9.87,4.89s-9.87-2.19-9.87-4.89c0-1.91,2.28-3.24,5.49-4.05.65-.16,1.34.05,2.07-.04h4.73c.73.09,1.42-.25,2.07-.09,3.21.81,5.38,2.27,5.38,4.18Z"/>
        <path class="cls-3" d="m78.81,84.89c-6.1,0-10.87-2.59-10.87-5.89,0-1.57,1.08-3.72,6.25-5.02.51-.13.99-.1,1.42-.07.28.02.54.04.77,0,.04,0,.08,0,.12,0h4.73s.08,0,.12,0c.2.03.45-.01.72-.06.44-.07.93-.15,1.47,0,3.96,1,6.14,2.83,6.14,5.15,0,3.3-4.77,5.89-10.87,5.89Zm-3.81-9c-.12,0-.24,0-.33.03-3.01.76-4.74,1.88-4.74,3.08,0,1.84,3.64,3.89,8.87,3.89s8.87-2.05,8.87-3.89c0-1.26-1.77-2.49-4.63-3.21-.15-.04-.4,0-.67.05-.34.05-.76.12-1.21.07h-4.62c-.39.04-.76.02-1.08,0-.17-.01-.33-.02-.46-.02Z"/>
      </g>
      <path class="cls-1" d="m84.4,76.62c0,.81-2.44,1.46-5.45,1.46s-5.45-.65-5.45-1.46,2.44-1.46,5.45-1.46c3.01,0,5.45.65,5.45,1.46Z"/>
      <path class="cls-3" d="m92.1,85.7c-.33,0-.65-.16-.84-.45l-1.55-2.38c-.3-.46-.17-1.08.29-1.38.46-.3,1.08-.17,1.38.29l1.55,2.38c.3.46.17,1.08-.29,1.38-.17.11-.36.16-.54.16Z"/>
      <path class="cls-3" d="m89.26,88.13c-.34,0-.67-.17-.86-.49l-1.16-1.95c-.28-.48-.12-1.09.35-1.37.48-.28,1.09-.12,1.37.35l1.16,1.95c.28.48.12,1.09-.35,1.37-.16.09-.34.14-.51.14Z"/>
      <path class="cls-3" d="m84.54,90.08c-.45,0-.86-.3-.97-.76l-.51-2.04c-.13-.54.19-1.08.73-1.21.53-.14,1.08.19,1.21.73l.51,2.04c.13.54-.19,1.08-.73,1.21-.08.02-.16.03-.24.03Z"/>
      <path class="cls-3" d="m62.74,82.91c-.25,0-.51-.1-.71-.29-.39-.39-.39-1.02,0-1.41l2.95-2.96c.39-.39,1.02-.39,1.41,0,.39.39.39,1.02,0,1.41l-2.95,2.96c-.2.2-.45.29-.71.29Z"/>
      <path class="cls-3" d="m65.8,86.09c-.23,0-.46-.08-.65-.24-.42-.36-.47-.99-.11-1.41l1.88-2.21c.36-.42.99-.47,1.41-.11.42.36.47.99.11,1.41l-1.88,2.21c-.2.23-.48.35-.76.35Z"/>
      <path class="cls-3" d="m69.8,89.05c-.2,0-.39-.06-.57-.18-.46-.31-.57-.94-.26-1.39l1.36-1.98c.31-.46.94-.57,1.39-.26.46.31.57.94.26,1.39l-1.36,1.98c-.19.28-.51.43-.83.43Z"/>
      <path class="cls-3" d="m74.68,90.52c-.15,0-.31-.03-.45-.11-.49-.25-.69-.85-.44-1.34l.95-1.88c.25-.49.85-.69,1.34-.44.49.25.69.85.44,1.34l-.95,1.88c-.18.35-.53.55-.89.55Z"/>
      <path class="cls-3" d="m79.94,90.71c-.55,0-1-.45-1-1v-1.62c0-.55.45-1,1-1s1,.45,1,1v1.62c0,.55-.45,1-1,1Z"/>
      <path class="cls-3" d="m94.65,81.92c-.3,0-.6-.14-.8-.39l-2.09-2.74c-.33-.44-.25-1.07.19-1.4.44-.34,1.07-.25,1.4.19l2.09,2.74c.33.44.25,1.07-.19,1.4-.18.14-.39.2-.6.2Z"/>
      <path class="cls-3" d="m98.22,95.4c-.38,0-.73-.22-.9-.56l-1.04-2.14-1.04,2.14c-.17.36-.54.58-.94.56l-12.95-.58c-.55-.02-.98-.49-.95-1.04.03-.55.5-.97,1.04-.95l12.3.55,1.65-3.4c.34-.69,1.46-.69,1.8,0l1.65,3.4,12.3-.55c.55-.02,1.02.4,1.04.95.02.55-.4,1.02-.95,1.04l-12.96.58s-.03,0-.04,0Z"/>
    </g>
  </g>
</svg>