<svg xmlns="http://www.w3.org/2000/svg" xmlns:xlink="http://www.w3.org/1999/xlink" width="640" height="600">
  <defs>
    <path id="c" fill="url(#a)" fill-rule="evenodd" d="M334.125 162.4584a74.980804 91.423965 0 1 0-149.96161 0 74.980804 91.423965 0 1 0 149.96161 0z"/>
  </defs>
  <defs>
    <linearGradient xlink:href="#b" id="a" x1=".50467288" x2=".50467288" y1=".96875" y2=".015625"/>
    <linearGradient xlink:href="#b" id="d" x1=".5272727" x2=".5272727" y1=".96875" y2=".046875"/>
    <linearGradient id="b">
      <stop offset="0" stop-color="#fff" stop-opacity=".11340206"/>
      <stop offset="1" stop-color="#fff"/>
    </linearGradient>
  </defs>
  <path fill="red" fill-rule="evenodd" stroke="#0b0" stroke-width="10.4999986" d="M529.51122019 350.13496456a103.13150332 87.01720723 31.92967293 1 0-92.04296229 147.7026422 103.13150332 87.01720723 31.92967293 1 0 92.04296229-147.7026422z"/>
  <use xlink:href="#c" fill-rule="evenodd" transform="matrix(-.2667 .75238 -.72623 -.25743 691.19694 287.62443)"/>
  <path fill="red" fill-rule="evenodd" stroke="#0b0" stroke-width="10.5000021" d="M485.6275043 214.87656531a103.13147093 87.0171799-22.8382594 1 0 67.54814342 160.39079374 103.13147093 87.0171799-22.8382594 1 0-67.54814341-160.39079374z"/>
  <path fill="red" fill-rule="evenodd" stroke="#0b0" stroke-width="10.4999958" d="M427.4867432 449.53298387A103.13152957 87.01722939 70.685218 1 0 263.24770094 507.096252a103.13152957 87.01722939 70.685218 1 0 164.23904226-57.56326813z"/>
  <path fill="red" fill-rule="evenodd" stroke="#0b0" stroke-width="10.5000007" d="M273.37696444 486.8953844a87.01718898 103.13148168 23.2601763 1 0-159.88905259-68.72740047 87.01718898 103.13148168 23.2601763 1 0 159.88905259 68.72740047z"/>
  <path fill="red" fill-rule="evenodd" stroke="#0b0" stroke-width="10.4999986" d="M146.5941749 407.31671324a87.01721101 103.1315078 72.04331301 1 0-53.65445562-165.55717876 87.01721101 103.1315078 72.04331301 1 0 53.65445563 165.55717876z"/>
  <path fill="red" fill-rule="evenodd" stroke="#0b0" stroke-width="10.4999986" d="M226.94484941 120.81099462a103.13150373 87.01720759 44.63476175 1 0-122.27395477 123.84287484A103.13150373 87.01720759 44.63476175 1 0 226.9448494 120.81099462z"/>
  <use xlink:href="#c" fill-rule="evenodd" transform="matrix(.18698 .77604 -.74907 .18048 616.86849 54.83096)"/>
  <path fill="red" fill-rule="evenodd" stroke="#0b0" stroke-width="10.4999979" d="M531.70437456 204.89611524a87.01721195 103.1315089 30.5754735 1 0-149.83665194-88.52659735 87.01721195 103.1315089 30.5754735 1 0 149.83665194 88.52659735z"/>
  <path fill="red" fill-rule="evenodd" stroke="#0b0" stroke-width="15.397408" d="M196.00246 268.35236a124.31028 147.3307 0 1 0-248.620563 0 124.31028 147.3307 0 1 0 248.620563 0z" transform="matrix(.7 0 0 .66433 263.87487 -60.920718)"/>
  <path fill="#fd0" fill-rule="evenodd" stroke="#0b0" stroke-width="22.169552" d="M664.30362 520.91925a267.0369 245.98965 0 1 0-534.07379 0 267.0369 245.98965 0 1 0 534.07379 0z" transform="matrix(.5074 0 0 .51885 120.31586 32.618735)"/>
  <path fill="url(#d)" fill-rule="evenodd" d="M413.05215 445.93848a149.96161 117.07529 0 1 0-299.92321 0 149.96161 117.07529 0 1 0 299.92321 0z" transform="matrix(.7 0 0 .7 137.7229 -48.392587)"/>
  <path fill="none" stroke="#000" stroke-width="1.17251729" d="M267.250361 385.850621c21.807156 12.290747 46.865385 8.793701 69.568093-3.06299 34.56649-18.052664 41.300742-41.222055 68.01942-65.1938"/>
  <path fill="none" stroke="#000" stroke-width="4.5" d="M456.46209 923.44781a25.651329 22.362696 0 1 1-51.25349-1.3839" transform="matrix(.27839 .20337 -.22295 .25394 497.06685 -9.710356)"/>
  <path fill-rule="evenodd" stroke="#000" stroke-width=".96657141" d="M386.894501 337.252967c-23.680608 35.670628-62.898703 64.111047-103.244211 54.400206.12964.661136.258251 1.299529.434259 1.98464 6.121549 23.829309 34.090441 30.421251 62.436269 14.707532 28.132321-15.595356 46.088756-47.320392 40.373683-71.092378z"/>
  <path fill="red" fill-opacity=".75" fill-rule="evenodd" d="M332.03291748 410.54921452a15.3209445 4.70225268.9609898 1 0-30.63641108-.56075675 15.3209445 4.70225268.9609898 1 0 30.63641108.56075675z"/>
  <path fill="#fff" fill-rule="evenodd" stroke="#000" stroke-width="4.3410702" d="M303.86958 779.40576a67.088089 82.215797 0 1 0-134.17617 0 67.088089 82.215797 0 1 0 134.17617 0z" transform="matrix(.35666 0 0 .32534 279.61325 9.663201)"/>
  <path fill-rule="evenodd" d="M366.87872368 262.40107798a11.49464318 14.55110183 0 1 0-22.98928493 0 11.49464318 14.55110183 0 1 0 22.98928493 0z"/>
  <path fill="#fff" fill-rule="evenodd" stroke="#000" stroke-width="1.47875" d="M275.585744 236.75921c-13.208048 0-23.929633 11.984224-23.929633 26.749324 0 10.981033 5.938954 20.414317 14.411278 24.532928 3.997854-2.563708 9.119859-5.034246 14.979713-7.025382 5.268221-1.79011 10.365285-2.914548 14.879396-3.456775 2.264829-4.086362 3.588893-8.893535 3.588886-14.050771 0-14.7651-10.721592-26.749324-23.92964-26.749324z"/>
  <path fill-rule="evenodd" d="M292.9693649 263.85208602a10.74510234 13.66245744 0 1 0-21.4902021 0 10.74510234 13.66245744 0 1 0 21.4902021 0z"/>
  <use xlink:href="#c" fill-rule="evenodd" transform="matrix(.79825 0 0 .7705 107.65909 -29.3935209)"/>
  <use xlink:href="#c" fill-rule="evenodd" transform="matrix(.47245 -.64342 .62106 .45603 -74.7278 254.45332)"/>
  <use xlink:href="#c" fill-rule="evenodd" transform="matrix(.54948 .57902 -.5589 .53038 417.4485 -99.275762)"/>
  <use xlink:href="#c" fill-rule="evenodd" transform="matrix(-.12719 -.78805 .76066 -.12277 3.65666 556.31537)"/>
  <use xlink:href="#c" fill-rule="evenodd" transform="matrix(-.6121 -.51237 .49456 -.59083 261.838241 706.3715)"/>
  <use xlink:href="#c" fill-rule="evenodd" transform="matrix(-.76863 .2154 -.20792 -.74192 585.06658 568.16833)"/>
  <path fill="#fff" fill-rule="evenodd" d="M291.223135 264.857721a2.0545735 3.81563647 0 1 0-4.109147 0 2.0545735 3.81563647 0 1 0 4.109147 0zm61.050157-1.907808a2.397003 3.76671915 0 1 0-4.794006 0 2.397003 3.76671915 0 1 0 4.794006 0z"/>
</svg>